/* XPM */
static char *adc269ef5da8481e88473c79658cb561je6sCR4jW0mEqiGn[] = {
/* columns rows colors chars-per-pixel */
"32 32 10 1 ",
"  c black",
". c #464646",
"X c #22B14C",
"o c #A8E61D",
"O c #FFF200",
"+ c #B4B4B4",
"@ c #F5E49C",
"# c #D3F9BC",
"$ c #FFF9BD",
"% c white",
/* pixels */
"oooooooooooooooooooooooooooooooo",
"oooooooo%ooooooXoooooooooooooooo",
"ooooooo%O%oooooXXooooooooo%ooooo",
"oo%ooooo%oooooooXoooooooo%O%oooo",
"o%O%ooooooo          ooooo%Xoooo",
"o#%oo%oooo OOOOOOOOOO oooooXXooo",
"##oo%O%oo OOOOOOOOOOOO oooooXooo",
"#oooo%oo OOOOOOOOOOOOOO oooooooo",
"ooooooo OOOO@++++++@$OOO oXooooo",
"ooooooo OOO@+$$$$$$+@$OO oXXoooo",
"oo%oooo OOO+$$$$$$$$+$OO ooXoooo",
"o%O%ooo OOO+$$....$$+$OO ooooooo",
"oo%oooo OOO+$$.$$.$$+$@O ooooooo",
"ooooooo OOO+$...$$$$+$@O ooo%ooo",
"oX#oooo OOO+$$.$$$$$+$@O oo%O%oo",
"oXX#ooo OOO+$$.$$$$$+$@O ooo%ooo",
"ooX#ooo OOO+$$.$$$$$+$@O ooooooo",
"ooooooo OOO+$...$$$$+$@O ooooooo",
"ooooooo OOO+$$.$$.$$+$@O o#oXooo",
"ooo%ooo OOO+$$....$$+$@O o##XXoo",
"oo%O%oo OOO+$$$$$$$$+$@O oo#oXoo",
"ooo%ooo OOO@+$$$$$$+@$@O o#ooooo",
"ooooooo OOO$@++++++@$OOO o##oooo",
"o#o#oooo OOO$$$$$$$OOOO ooo#Xooo",
"####ooooo OOOOOOOOOOOO ooooooooo",
"#o#ooooooo OOOOOOOOOO oooooooooo",
"oooo%oooooo          ooooo%ooooo",
"ooo%O%ooooooooooooooooooo%O%oooo",
"oooo%oooooooXooooooooooooo%ooooo",
"%ooooooooXooXXooooo%ooooooooXooo",
"O%oooooooXXooXoooo%O%ooooooXXooo",
"%oooooooooXoooooooo%oooooooXoooo"
};
