/* XPM */
static char *eaad7a65e36c475bc066193de617e96bxxdkPOwCK55ontTy[] = {
/* columns rows colors chars-per-pixel */
"32 32 11 1 ",
"  c black",
". c #464646",
"X c #FF7E00",
"o c #22B14C",
"O c #A8E61D",
"+ c #FFC20E",
"@ c #FFF200",
"# c #E5AA7A",
"$ c #F5E49C",
"% c #D3F9BC",
"& c white",
/* pixels */
"OOOOOOOOOOOOOOOOOOOOOOOOOOOOOOOO",
"OOOOoOOOOOOOOOOOOOOOOOOOOOOO&OOO",
"Oo%ooOOO&OOOOO%OOOOOOOOOOOO&@&OO",
"ooOoOOO&@&OOOO%%O%OOOOOOOOOO&OOO",
"oOOOOOOo&OOOOOO%O%%OOOOOOOOOOOOO",
"OO%OOOOOOOOOOOOOOO%O&OOOOOOOOOOO",
"OO%%OOOOOOOOOOOOOOO&@&OOOOOOO%OO",
"OOO%OOOOOOOOOOOOOOOO&oOOOOOOO%%O",
"OOOO    OOOOOOOOOOOOOOO    OOO%O",
"OOO ++$ XXXXXXXXXXXXXXX $++ OOOO",
"OO ++$$ XXXXXXXXXXXXXXX $$++ OOO",
"OO +$$$ ############### $$$+ OoO",
"OO +$$$ ############### $$$+ Ooo",
"%O +$$$ ############### $$$+ OOo",
"%% +$$$ XXXXXXXXXXXXXXX $$$+ OOO",
"O% +$$$ XXXXXXXXXXXXXXX $$$+ OoO",
"OO +$$$                 $$$+ Ooo",
"OO +$$$$$$$$$$$$$$$$$$$$$$$+ OOo",
"OO +$$$$$$$$$$$$$$$$$$$$$$$+ OOO",
"OO ++$$$$$$$$$$$$$$$$$$$$$++ OO%",
"%OO ++++++++$+++++$++++++++ OO%%",
"%%O  +++++ +$+ . +$+ +++++  OO%O",
"O%OO       +$+   +$+       OOOOO",
"OOOO XXXXX +++++++++ XXXXX OO%OO",
"OOOO XXXXXX ++$$$++ XXXXXX O%%OO",
"OOOO XXXXXXX       XXXXXXX O%OOO",
"OOOO                       OOOOO",
"OOoOOOOOOOO         OOOOOOOOOoOO",
"OOooOO&OOOOOOOOOOOOOOOOO&OOOooOO",
"OOOo%&@&OOOOOOO&OOOOOOO&@&OOo%OO",
"OOOOOO&OOOOOOO&@&OOOOOOO&oOOOOOO",
"OOOOOOOOOOOOOOO&OOOOOOOOOOOOOOOO"
};
