/* XPM */
static char *cd013fbf2a6348c0a24ebf53d22a298fqAOQ9w1828EgMdAj[] = {
/* columns rows colors chars-per-pixel */
"32 32 5 1 ",
"  c #22B14C",
". c #A8E61D",
"X c #FFF200",
"o c #D3F9BC",
"O c white",
/* pixels */
"..O.O...........................",
"...X..........O......  o........",
"..OoO........OXO...... o........",
"...o..........Oo..........O.O...",
"...............oo..........X....",
"......O.O.......o......o..O O...",
"O.O....X..............oo... ....",
".X....OoO.............o.........",
"O O....o..  ....................",
". ......... ........o.....O.O...",
".............O.O....oo.....X....",
"..............X......o....OoO...",
".............O O... .......o....",
".O.O.....o.... .... ............",
"..X......oo........ ............",
".OoO.... .o................... .",
"..o.....o....................  .",
"........oo......oo......O.... ..",
".........o.............OXO......",
"........................Oo......",
"..... ......O............oo.....",
". ..  .....OXO...O.O......o..  .",
".  . .......O ....X........... .",
".. ... ......  ..O O............",
".....  ....... ... ..... ...o...",
"..... .................  ...oo..",
".....O................. .....o..",
"....OXO.....o......O.......o....",
"....oO......oo....OXO.....oo....",
"...oo........o.....O  ....o.....",
"...o....  ........... .........O",
"........ .....................OX"
};
