/* XPM */
static char *_9d82f60621749efe72d3b88c12739e97BIubjlanpplUP6w[] = {
/* columns rows colors chars-per-pixel */
"32 32 10 1 ",
"  c None",
". c black",
"X c #ED1C24",
"o c #9C5A3C",
"O c #22B14C",
"+ c #A8E61D",
"@ c #FFF200",
"# c #B4B4B4",
"$ c #D3F9BC",
"% c white",
/* pixels */
"++++++++++++++++++++++++++++++++",
"++++++++++++++++++++++++++++++++",
"++++++++++++++++++++++++++++%+++",
"+++%+++++++++++++++++++++++%@%++",
"++%@%++$++++++++$+++++++++++%+++",
"+++%+++$$+++++++$$++++++O+++++++",
"++++++++$+++++$++$+++++OO+++++++",
"++++++++++++++$$+++++++O++++++++",
"++++++++++++ ++$$$++++O+++++++++",
"++$++++++++.........++++++++++++",
"+$$+++++++.#% % %%%#.+++++++++++",
"+$++++++++.%%%%%%%%%.+++++++O+++",
"$+++++++++. % %%%%% .++++++OO+++",
"++++++++++.%%% . . %.++++++O++++",
"++++++++++. % %.%.% .+++++++++++",
"++++++O+++. %%o. .o%...+++++++++",
"+++++OO+++..#%%%%%%#. .+++++++++",
"+++++O+++++....###.. %.++++++%++",
"++++++O+++. % X % X %.++++++%@%+",
"+++++OO++. % %X% %X..++++++++%++",
"+++++O+++.% .X@XXX@.++++++++++++",
"+++++++++....XXXXXX.++++++O+++++",
"++++++++++++..XX.X.++++++OO+++++",
"++++++++++......X...+++++O++O+++",
"$++$+++++............++++++OO+++",
"$$+$$++++............+++++$O++++",
"+$++$++++...........++++++++++++",
"++++++++++..........++++++++++++",
"+++O++++++++%+++++%++++O+++++$++",
"+++OO++++++%@%+++%@%+++OO+++$$++",
"++++O$++++++%+++++%+++++O+++$+++",
"++++++++++++++++++++++++++++++++"
};
