/* XPM */
static char *f388289b6d9b429ddcf60ba8f86b78d1m7mqTQxUOUJ9fsNg[] = {
/* columns rows colors chars-per-pixel */
"32 32 7 1 ",
"  c black",
". c #9C5A3C",
"X c #22B14C",
"o c #A8E61D",
"O c #FFF200",
"+ c #D3F9BC",
"@ c white",
/* pixels */
"oooooooooooooooooooooooooooooooo",
"oooooooooooooooo@ooooooooooooooo",
"ooooooo+ooooooo@O@ooooooooooo@oo",
"ooo+oo++oooooooo@ooooooooooo@O@o",
"oo++oo+ooooooooooooooooooXooo@oo",
"oX+ooooooooo       ooooooXXooooo",
"ooooo+ooooo XXXXXXX ooooooXooooo",
"oo@o++oooo XoooooooX ooooooooooo",
"o@O@+oooo  XoXXXXXoX  oooooooooo",
"oo@ooooo XXXXX   XoXXX ooooooooo",
"Xooooooo XoXX XXX XXoX oooo+oooo",
"XXooooo XoX  XXoXX  XXX ooo+oooo",
"oXoXoo XooX  XoooX  XoXX oo++ooo",
"ooXXo X XXXXXoooooXXXXX X oo+Xoo",
"ooXoo XX XXooooooooooX XX oooooo",
"ooooo   XXoooooooooooXX   oooooo",
"ooooo XXooooooooooooooXXX oooooo",
"ooooo ooooooXXoooXXoooooX oooooo",
"oooo XooooooX XXX XooooooX ooooo",
"ooo XXoXXoooXX   XXoooXXoXX oooo",
"ooo XXXXoooX XXXXX XoooXXXX oo@o",
"ooo    ooXX XoooooX Xooo    o@O@",
"ooo    ooX XXXXXXXXX Xoo    oo@o",
"ooooo     XXXX   XXXX     oooooo",
"Xoooo   .. ...   ... ..   oooooo",
"XXooo   .. ......... ..   oooooo",
"oXoooo   ....     ....   oooo+oo",
"ooXoooo                 ooooo++o",
"ooXXoooooooooooooooooooooooXoo+o",
"oooXoooooo@ooooooooooooooooXXooo",
"ooooooooo@O@ooooooooooooooooXooo",
"oooooooooo@ooooooooooooooooooooo"
};
